<?xml version="1.0" standalone="no"?><!DOCTYPE svg PUBLIC "-//W3C//DTD SVG 1.1//EN" "http://www.w3.org/Graphics/SVG/1.1/DTD/svg11.dtd"><svg t="1744729289078" class="icon" viewBox="0 0 1024 1024" version="1.1" xmlns="http://www.w3.org/2000/svg" p-id="2619" xmlns:xlink="http://www.w3.org/1999/xlink" width="128" height="128"><path d="M512 102.4c225.28 0 409.6 184.32 409.6 409.6s-184.32 409.6-409.6 409.6-409.6-184.32-409.6-409.6 184.32-409.6 409.6-409.6m0-102.4C230.4 0 0 230.4 0 512s230.4 512 512 512 512-230.4 512-512S793.6 0 512 0z" fill="#1CD8D2" p-id="2620"></path><path d="M768 373.76L476.16 665.6c-20.48 20.48-51.2 20.48-71.68 0l-143.36-143.36c-20.48-20.48-20.48-51.2 0-71.68 20.48-20.48 51.2-20.48 71.68 0l107.52 107.52 256-250.88c20.48-20.48 51.2-20.48 71.68 0 15.36 15.36 15.36 46.08 0 66.56z" fill="#1CD8D2" p-id="2621"></path></svg>