<?xml version="1.0" standalone="no"?><!DOCTYPE svg PUBLIC "-//W3C//DTD SVG 1.1//EN" "http://www.w3.org/Graphics/SVG/1.1/DTD/svg11.dtd"><svg t="1744729300769" class="icon" viewBox="0 0 1024 1024" version="1.1" xmlns="http://www.w3.org/2000/svg" p-id="3613" xmlns:xlink="http://www.w3.org/1999/xlink" width="128" height="128"><path d="M512 512m-512 0a512 512 0 1 0 1024 0 512 512 0 1 0-1024 0Z" fill="#F5222D" p-id="3614"></path><path d="M693.333333 330.666667a45.226667 45.226667 0 0 1 0 64l-298.666666 298.666666a45.226667 45.226667 0 1 1-64-64l298.666666-298.666666a45.226667 45.226667 0 0 1 64 0z" fill="#FFFFFF" p-id="3615"></path><path d="M330.666667 330.666667a45.226667 45.226667 0 0 1 64 0l298.666666 298.666666a45.226667 45.226667 0 1 1-64 64l-298.666666-298.666666a45.226667 45.226667 0 0 1 0-64z" fill="#FFFFFF" p-id="3616"></path></svg>